<svg width="131" height="31" viewBox="0 0 131 31" fill="none" xmlns="http://www.w3.org/2000/svg">
<rect width="63" height="31" rx="5" fill="#FFD600"/>
<path d="M9.572 16.471V14.267H12.403C12.9983 14.267 13.4543 14.115 13.771 13.811C14.1003 13.507 14.265 13.0953 14.265 12.576C14.265 12.0947 14.1067 11.6957 13.79 11.379C13.4733 11.0623 13.0173 10.904 12.422 10.904H9.572V8.586H12.764C13.6507 8.586 14.4297 8.757 15.101 9.099C15.7723 9.42833 16.298 9.89067 16.678 10.486C17.058 11.0813 17.248 11.7653 17.248 12.538C17.248 13.3233 17.058 14.0137 16.678 14.609C16.298 15.1917 15.766 15.6477 15.082 15.977C14.398 16.3063 13.5937 16.471 12.669 16.471H9.572ZM7.292 22V8.586H10.275V22H7.292ZM14.588 22L10.408 16.224L13.144 15.483L18.122 22H14.588ZM19.4268 22V8.586H22.4098V22H19.4268ZM21.7068 22V19.416H29.0598V22H21.7068ZM21.7068 16.395V13.906H28.3948V16.395H21.7068ZM21.7068 11.151V8.586H28.9648V11.151H21.7068ZM31.1162 22V8.586H33.2062L34.0992 11.265V22H31.1162ZM40.3692 22L32.4652 11.873L33.2062 8.586L41.1102 18.713L40.3692 22ZM40.3692 22L39.5712 19.321V8.586H42.5542V22H40.3692ZM48.4306 22V8.776H51.4136V22H48.4306ZM44.2316 11.189V8.586H55.6126V11.189H44.2316Z" fill="black"/>
<path d="M69.572 16.471V14.267H72.403C72.9983 14.267 73.4543 14.115 73.771 13.811C74.1003 13.507 74.265 13.0953 74.265 12.576C74.265 12.0947 74.1067 11.6957 73.79 11.379C73.4733 11.0623 73.0173 10.904 72.422 10.904H69.572V8.586H72.764C73.6507 8.586 74.4297 8.757 75.101 9.099C75.7723 9.42833 76.298 9.89067 76.678 10.486C77.058 11.0813 77.248 11.7653 77.248 12.538C77.248 13.3233 77.058 14.0137 76.678 14.609C76.298 15.1917 75.766 15.6477 75.082 15.977C74.398 16.3063 73.5937 16.471 72.669 16.471H69.572ZM67.292 22V8.586H70.275V22H67.292ZM74.588 22L70.408 16.224L73.144 15.483L78.122 22H74.588ZM85.7555 22.228C84.7422 22.228 83.8049 22.0507 82.9435 21.696C82.0949 21.3413 81.3475 20.8473 80.7015 20.214C80.0555 19.5807 79.5552 18.846 79.2005 18.01C78.8459 17.1613 78.6685 16.2493 78.6685 15.274C78.6685 14.286 78.8459 13.374 79.2005 12.538C79.5552 11.702 80.0492 10.9737 80.6825 10.353C81.3159 9.71967 82.0569 9.232 82.9055 8.89C83.7669 8.53533 84.7042 8.358 85.7175 8.358C86.7182 8.358 87.6429 8.53533 88.4915 8.89C89.3529 9.232 90.1002 9.71967 90.7335 10.353C91.3795 10.9737 91.8799 11.7083 92.2345 12.557C92.5892 13.393 92.7665 14.305 92.7665 15.293C92.7665 16.2683 92.5892 17.1803 92.2345 18.029C91.8799 18.865 91.3859 19.5997 90.7525 20.233C90.1192 20.8537 89.3719 21.3413 88.5105 21.696C87.6619 22.0507 86.7435 22.228 85.7555 22.228ZM85.7175 19.511C86.5155 19.511 87.2122 19.3337 87.8075 18.979C88.4155 18.6243 88.8842 18.1303 89.2135 17.497C89.5429 16.851 89.7075 16.11 89.7075 15.274C89.7075 14.6407 89.6125 14.0707 89.4225 13.564C89.2325 13.0447 88.9602 12.6013 88.6055 12.234C88.2509 11.854 87.8265 11.569 87.3325 11.379C86.8512 11.1763 86.3129 11.075 85.7175 11.075C84.9195 11.075 84.2165 11.2523 83.6085 11.607C83.0132 11.949 82.5509 12.4367 82.2215 13.07C81.8922 13.6907 81.7275 14.4253 81.7275 15.274C81.7275 15.9073 81.8225 16.4837 82.0125 17.003C82.2025 17.5223 82.4685 17.972 82.8105 18.352C83.1652 18.7193 83.5895 19.0043 84.0835 19.207C84.5775 19.4097 85.1222 19.511 85.7175 19.511ZM98.2835 22L93.1155 8.586H96.3075L100.241 19.435H98.9295L102.92 8.586H106.074L100.849 22H98.2835ZM107.648 22V8.586H110.631V22H107.648ZM109.928 22V19.416H117.281V22H109.928ZM109.928 16.395V13.906H116.616V16.395H109.928ZM109.928 11.151V8.586H117.186V11.151H109.928ZM121.618 16.471V14.267H124.449C125.044 14.267 125.5 14.115 125.817 13.811C126.146 13.507 126.311 13.0953 126.311 12.576C126.311 12.0947 126.153 11.6957 125.836 11.379C125.519 11.0623 125.063 10.904 124.468 10.904H121.618V8.586H124.81C125.697 8.586 126.476 8.757 127.147 9.099C127.818 9.42833 128.344 9.89067 128.724 10.486C129.104 11.0813 129.294 11.7653 129.294 12.538C129.294 13.3233 129.104 14.0137 128.724 14.609C128.344 15.1917 127.812 15.6477 127.128 15.977C126.444 16.3063 125.64 16.471 124.715 16.471H121.618ZM119.338 22V8.586H122.321V22H119.338ZM126.634 22L122.454 16.224L125.19 15.483L130.168 22H126.634Z" fill="#FFD600"/>
</svg>
